<mxfile host="app.diagrams.net" modified="2023-10-12T14:03:00.830Z" agent="Mozilla/5.0 (Windows NT 10.0; Win64; x64) AppleWebKit/537.36 (KHTML, like Gecko) Chrome/117.0.0.0 Safari/537.36" etag="dPQhlPDRTzdR8tIXArDu" version="22.0.4" type="device">
  <diagram id="xN5c13emSfbrc5WPA_zT" name="Page-1">
    <mxGraphModel dx="1531" dy="418" grid="1" gridSize="10" guides="1" tooltips="1" connect="1" arrows="1" fold="1" page="1" pageScale="1" pageWidth="827" pageHeight="1169" math="0" shadow="0">
      <root>
        <mxCell id="0" />
        <mxCell id="1" parent="0" />
        <mxCell id="144" value="bigg:AnalyticalModel" style="rounded=0;whiteSpace=wrap;html=1;snapToPoint=1;points=[[0.1,0],[0.2,0],[0.3,0],[0.4,0],[0.5,0],[0.6,0],[0.7,0],[0.8,0],[0.9,0],[0,0.1],[0,0.3],[0,0.5],[0,0.7],[0,0.9],[0.1,1],[0.2,1],[0.3,1],[0.4,1],[0.5,1],[0.6,1],[0.7,1],[0.8,1],[0.9,1],[1,0.1],[1,0.3],[1,0.5],[1,0.7],[1,0.9]];fillColor=#d5e8d4;strokeColor=#82b366;" parent="1" vertex="1">
          <mxGeometry x="90" y="160" width="179" height="30" as="geometry" />
        </mxCell>
        <mxCell id="227" value="bigg:modelName: string" style="rounded=0;whiteSpace=wrap;html=1;snapToPoint=1;points=[[0.1,0],[0.2,0],[0.3,0],[0.4,0],[0.5,0],[0.6,0],[0.7,0],[0.8,0],[0.9,0],[0,0.1],[0,0.3],[0,0.5],[0,0.7],[0,0.9],[0.1,1],[0.2,1],[0.3,1],[0.4,1],[0.5,1],[0.6,1],[0.7,1],[0.8,1],[0.9,1],[1,0.1],[1,0.3],[1,0.5],[1,0.7],[1,0.9]];" parent="1" vertex="1">
          <mxGeometry x="90" y="189.9999999999999" width="179" height="30" as="geometry" />
        </mxCell>
        <mxCell id="229" value="bigg:modelLocation: string" style="rounded=0;whiteSpace=wrap;html=1;snapToPoint=1;points=[[0.1,0],[0.2,0],[0.3,0],[0.4,0],[0.5,0],[0.6,0],[0.7,0],[0.8,0],[0.9,0],[0,0.1],[0,0.3],[0,0.5],[0,0.7],[0,0.9],[0.1,1],[0.2,1],[0.3,1],[0.4,1],[0.5,1],[0.6,1],[0.7,1],[0.8,1],[0.9,1],[1,0.1],[1,0.3],[1,0.5],[1,0.7],[1,0.9]];" parent="1" vertex="1">
          <mxGeometry x="90" y="219.9999999999999" width="179" height="30" as="geometry" />
        </mxCell>
        <mxCell id="aMNXibjqDT7EPzsapejx-229" value="bigg:modelTrainedDate: date" style="rounded=0;whiteSpace=wrap;html=1;snapToPoint=1;points=[[0.1,0],[0.2,0],[0.3,0],[0.4,0],[0.5,0],[0.6,0],[0.7,0],[0.8,0],[0.9,0],[0,0.1],[0,0.3],[0,0.5],[0,0.7],[0,0.9],[0.1,1],[0.2,1],[0.3,1],[0.4,1],[0.5,1],[0.6,1],[0.7,1],[0.8,1],[0.9,1],[1,0.1],[1,0.3],[1,0.5],[1,0.7],[1,0.9]];" parent="1" vertex="1">
          <mxGeometry x="90" y="249.9999999999999" width="179" height="30" as="geometry" />
        </mxCell>
        <mxCell id="aMNXibjqDT7EPzsapejx-230" value="bigg:modelBaselineYear: string" style="rounded=0;whiteSpace=wrap;html=1;snapToPoint=1;points=[[0.1,0],[0.2,0],[0.3,0],[0.4,0],[0.5,0],[0.6,0],[0.7,0],[0.8,0],[0.9,0],[0,0.1],[0,0.3],[0,0.5],[0,0.7],[0,0.9],[0.1,1],[0.2,1],[0.3,1],[0.4,1],[0.5,1],[0.6,1],[0.7,1],[0.8,1],[0.9,1],[1,0.1],[1,0.3],[1,0.5],[1,0.7],[1,0.9]];" parent="1" vertex="1">
          <mxGeometry x="90" y="279.9999999999999" width="179" height="30" as="geometry" />
        </mxCell>
        <mxCell id="cyqLHnk5NtlNjv0K2VUl-229" value="geosp:Feature" style="rounded=0;whiteSpace=wrap;html=1;snapToPoint=1;points=[[0.1,0],[0.2,0],[0.3,0],[0.4,0],[0.5,0],[0.6,0],[0.7,0],[0.8,0],[0.9,0],[0,0.1],[0,0.3],[0,0.5],[0,0.7],[0,0.9],[0.1,1],[0.2,1],[0.3,1],[0.4,1],[0.5,1],[0.6,1],[0.7,1],[0.8,1],[0.9,1],[1,0.1],[1,0.3],[1,0.5],[1,0.7],[1,0.9]];" vertex="1" parent="1">
          <mxGeometry x="100.5" y="420.0000000000002" width="120" height="30" as="geometry" />
        </mxCell>
        <mxCell id="cyqLHnk5NtlNjv0K2VUl-230" value="saref:Measurement" style="rounded=0;whiteSpace=wrap;html=1;snapToPoint=1;points=[[0.1,0],[0.2,0],[0.3,0],[0.4,0],[0.5,0],[0.6,0],[0.7,0],[0.8,0],[0.9,0],[0,0.1],[0,0.3],[0,0.5],[0,0.7],[0,0.9],[0.1,1],[0.2,1],[0.3,1],[0.4,1],[0.5,1],[0.6,1],[0.7,1],[0.8,1],[0.9,1],[1,0.1],[1,0.3],[1,0.5],[1,0.7],[1,0.9]];" vertex="1" parent="1">
          <mxGeometry x="-287.85" y="350" width="120" height="30" as="geometry" />
        </mxCell>
        <mxCell id="cyqLHnk5NtlNjv0K2VUl-231" value="saref:UnitOfMeasure" style="rounded=0;whiteSpace=wrap;html=1;snapToPoint=1;points=[[0.1,0],[0.2,0],[0.3,0],[0.4,0],[0.5,0],[0.6,0],[0.7,0],[0.8,0],[0.9,0],[0,0.1],[0,0.3],[0,0.5],[0,0.7],[0,0.9],[0.1,1],[0.2,1],[0.3,1],[0.4,1],[0.5,1],[0.6,1],[0.7,1],[0.8,1],[0.9,1],[1,0.1],[1,0.3],[1,0.5],[1,0.7],[1,0.9]];" vertex="1" parent="1">
          <mxGeometry x="-400" y="420" width="135" height="30" as="geometry" />
        </mxCell>
        <mxCell id="cyqLHnk5NtlNjv0K2VUl-232" value="time:TemporalEntity" style="rounded=0;whiteSpace=wrap;html=1;snapToPoint=1;points=[[0.1,0],[0.2,0],[0.3,0],[0.4,0],[0.5,0],[0.6,0],[0.7,0],[0.8,0],[0.9,0],[0,0.1],[0,0.3],[0,0.5],[0,0.7],[0,0.9],[0.1,1],[0.2,1],[0.3,1],[0.4,1],[0.5,1],[0.6,1],[0.7,1],[0.8,1],[0.9,1],[1,0.1],[1,0.3],[1,0.5],[1,0.7],[1,0.9]];" vertex="1" parent="1">
          <mxGeometry x="247" y="475" width="120" height="30" as="geometry" />
        </mxCell>
        <mxCell id="cyqLHnk5NtlNjv0K2VUl-233" value="saref:FeatureOfInterest" style="rounded=0;whiteSpace=wrap;html=1;snapToPoint=1;points=[[0.1,0],[0.2,0],[0.3,0],[0.4,0],[0.5,0],[0.6,0],[0.7,0],[0.8,0],[0.9,0],[0,0.1],[0,0.3],[0,0.5],[0,0.7],[0,0.9],[0.1,1],[0.2,1],[0.3,1],[0.4,1],[0.5,1],[0.6,1],[0.7,1],[0.8,1],[0.9,1],[1,0.1],[1,0.3],[1,0.5],[1,0.7],[1,0.9]];" vertex="1" parent="1">
          <mxGeometry x="-590" y="320" width="140" height="30" as="geometry" />
        </mxCell>
        <mxCell id="cyqLHnk5NtlNjv0K2VUl-234" value="" style="endArrow=classic;html=1;endSize=8;dashed=1;arcSize=0;rounded=0;edgeStyle=orthogonalEdgeStyle;exitX=0.7;exitY=0;exitDx=0;exitDy=0;" edge="1" parent="1" source="cyqLHnk5NtlNjv0K2VUl-237" target="cyqLHnk5NtlNjv0K2VUl-229">
          <mxGeometry width="50" height="50" relative="1" as="geometry">
            <mxPoint x="236.00000000000045" y="550" as="sourcePoint" />
            <mxPoint x="340" y="45" as="targetPoint" />
            <Array as="points">
              <mxPoint x="-27" y="435" />
            </Array>
          </mxGeometry>
        </mxCell>
        <mxCell id="cyqLHnk5NtlNjv0K2VUl-235" value="&lt;div&gt;s4city:refersToFeature&lt;/div&gt;" style="edgeLabel;html=1;align=center;verticalAlign=middle;resizable=0;points=[];" connectable="0" vertex="1" parent="cyqLHnk5NtlNjv0K2VUl-234">
          <mxGeometry x="-0.1912" y="-1" relative="1" as="geometry">
            <mxPoint x="13" y="-16" as="offset" />
          </mxGeometry>
        </mxCell>
        <mxCell id="cyqLHnk5NtlNjv0K2VUl-236" value="(all) saref:hasName: rdfs:Literal&lt;br&gt;(all) saref:hasDescription: rdfs:Literal&lt;br&gt;saref:hasValue (1..1)&lt;br&gt;(all) s4city:hasLastUpdateDate: xsd:dateTime&lt;br&gt;(all) s4city:hasCreationDate: xsd:dateTime&lt;br&gt;(all) s4city:hasExpirationDate: xsd:dateTime" style="rounded=0;whiteSpace=wrap;html=1;snapToPoint=1;points=[[0.1,0],[0.2,0],[0.3,0],[0.4,0],[0.5,0],[0.6,0],[0.7,0],[0.8,0],[0.9,0],[0,0.1],[0,0.3],[0,0.5],[0,0.7],[0,0.9],[0.1,1],[0.2,1],[0.3,1],[0.4,1],[0.5,1],[0.6,1],[0.7,1],[0.8,1],[0.9,1],[1,0.1],[1,0.3],[1,0.5],[1,0.7],[1,0.9]];dashed=1;" vertex="1" parent="1">
          <mxGeometry x="-207.5" y="505" width="257.5" height="100" as="geometry" />
        </mxCell>
        <mxCell id="cyqLHnk5NtlNjv0K2VUl-237" value="s4city:KeyPerformanceIndicatorAssessment" style="rounded=0;whiteSpace=wrap;html=1;snapToPoint=1;points=[[0.1,0],[0.2,0],[0.3,0],[0.4,0],[0.5,0],[0.6,0],[0.7,0],[0.8,0],[0.9,0],[0,0.1],[0,0.3],[0,0.5],[0,0.7],[0,0.9],[0.1,1],[0.2,1],[0.3,1],[0.4,1],[0.5,1],[0.6,1],[0.7,1],[0.8,1],[0.9,1],[1,0.1],[1,0.3],[1,0.5],[1,0.7],[1,0.9]];" vertex="1" parent="1">
          <mxGeometry x="-207.5" y="475" width="257.5" height="30" as="geometry" />
        </mxCell>
        <mxCell id="cyqLHnk5NtlNjv0K2VUl-238" value="" style="endArrow=classic;html=1;endSize=8;dashed=1;arcSize=0;rounded=0;edgeStyle=orthogonalEdgeStyle;exitX=0.4;exitY=0;exitDx=0;exitDy=0;" edge="1" parent="1" source="cyqLHnk5NtlNjv0K2VUl-237" target="cyqLHnk5NtlNjv0K2VUl-230">
          <mxGeometry width="50" height="50" relative="1" as="geometry">
            <mxPoint x="-530" y="474.9499999999998" as="sourcePoint" />
            <mxPoint x="-236" y="31.950000000000273" as="targetPoint" />
            <Array as="points">
              <mxPoint x="-110" y="475" />
              <mxPoint x="-110" y="413" />
              <mxPoint x="-241" y="413" />
            </Array>
          </mxGeometry>
        </mxCell>
        <mxCell id="cyqLHnk5NtlNjv0K2VUl-239" value="&lt;div&gt;s4city:isDerivedFrom&lt;/div&gt;" style="edgeLabel;html=1;align=center;verticalAlign=middle;resizable=0;points=[];" connectable="0" vertex="1" parent="cyqLHnk5NtlNjv0K2VUl-238">
          <mxGeometry x="-0.1912" y="-1" relative="1" as="geometry">
            <mxPoint x="-33" y="-12" as="offset" />
          </mxGeometry>
        </mxCell>
        <mxCell id="cyqLHnk5NtlNjv0K2VUl-240" value="" style="endArrow=classic;html=1;endSize=8;dashed=1;arcSize=0;rounded=0;edgeStyle=orthogonalEdgeStyle;exitX=0.23;exitY=-0.009;exitDx=0;exitDy=0;exitPerimeter=0;" edge="1" parent="1" source="cyqLHnk5NtlNjv0K2VUl-237" target="cyqLHnk5NtlNjv0K2VUl-231">
          <mxGeometry width="50" height="50" relative="1" as="geometry">
            <mxPoint x="-140" y="474" as="sourcePoint" />
            <mxPoint x="-140" y="404" as="targetPoint" />
            <Array as="points">
              <mxPoint x="-150" y="475" />
            </Array>
          </mxGeometry>
        </mxCell>
        <mxCell id="cyqLHnk5NtlNjv0K2VUl-241" value="&lt;div&gt;saref:isMeasuredIn&lt;/div&gt;" style="edgeLabel;html=1;align=center;verticalAlign=middle;resizable=0;points=[];" connectable="0" vertex="1" parent="cyqLHnk5NtlNjv0K2VUl-240">
          <mxGeometry x="-0.1912" y="-1" relative="1" as="geometry">
            <mxPoint x="-28" y="11" as="offset" />
          </mxGeometry>
        </mxCell>
        <mxCell id="cyqLHnk5NtlNjv0K2VUl-242" value="" style="endArrow=classic;html=1;endSize=8;dashed=1;arcSize=0;rounded=0;edgeStyle=orthogonalEdgeStyle;entryX=0.2;entryY=1;entryDx=0;entryDy=0;exitX=0;exitY=0.5;exitDx=0;exitDy=0;" edge="1" parent="1" source="cyqLHnk5NtlNjv0K2VUl-237" target="cyqLHnk5NtlNjv0K2VUl-233">
          <mxGeometry width="50" height="50" relative="1" as="geometry">
            <mxPoint x="-570" y="468" as="sourcePoint" />
            <mxPoint x="-570" y="398" as="targetPoint" />
            <Array as="points">
              <mxPoint x="-207" y="485" />
              <mxPoint x="-562" y="485" />
            </Array>
          </mxGeometry>
        </mxCell>
        <mxCell id="cyqLHnk5NtlNjv0K2VUl-243" value="&lt;div&gt;s4city:assesses&lt;/div&gt;" style="edgeLabel;html=1;align=center;verticalAlign=middle;resizable=0;points=[];" connectable="0" vertex="1" parent="cyqLHnk5NtlNjv0K2VUl-242">
          <mxGeometry x="-0.1912" y="-1" relative="1" as="geometry">
            <mxPoint x="30" y="-1" as="offset" />
          </mxGeometry>
        </mxCell>
        <mxCell id="cyqLHnk5NtlNjv0K2VUl-244" value="(all) saref:hasName: rdfs:Literal&lt;br style=&quot;border-color: var(--border-color);&quot;&gt;(all) saref:hasDescription: rdfs:Literal&lt;br style=&quot;border-color: var(--border-color);&quot;&gt;" style="rounded=0;whiteSpace=wrap;html=1;snapToPoint=1;points=[[0.1,0],[0.2,0],[0.3,0],[0.4,0],[0.5,0],[0.6,0],[0.7,0],[0.8,0],[0.9,0],[0,0.1],[0,0.3],[0,0.5],[0,0.7],[0,0.9],[0.1,1],[0.2,1],[0.3,1],[0.4,1],[0.5,1],[0.6,1],[0.7,1],[0.8,1],[0.9,1],[1,0.1],[1,0.3],[1,0.5],[1,0.7],[1,0.9]];dashed=1;" vertex="1" parent="1">
          <mxGeometry x="-530" y="555" width="200" height="40" as="geometry" />
        </mxCell>
        <mxCell id="cyqLHnk5NtlNjv0K2VUl-245" value="s4city:KeyPerformanceIndicator" style="rounded=0;whiteSpace=wrap;html=1;snapToPoint=1;points=[[0.1,0],[0.2,0],[0.3,0],[0.4,0],[0.5,0],[0.6,0],[0.7,0],[0.8,0],[0.9,0],[0,0.1],[0,0.3],[0,0.5],[0,0.7],[0,0.9],[0.1,1],[0.2,1],[0.3,1],[0.4,1],[0.5,1],[0.6,1],[0.7,1],[0.8,1],[0.9,1],[1,0.1],[1,0.3],[1,0.5],[1,0.7],[1,0.9]];" vertex="1" parent="1">
          <mxGeometry x="-530" y="525" width="200" height="30" as="geometry" />
        </mxCell>
        <mxCell id="cyqLHnk5NtlNjv0K2VUl-246" value="" style="endArrow=classic;html=1;endSize=8;arcSize=0;rounded=0;entryX=0.071;entryY=0.98;entryDx=0;entryDy=0;edgeStyle=orthogonalEdgeStyle;exitX=0;exitY=0.1;exitDx=0;exitDy=0;entryPerimeter=0;" edge="1" parent="1" source="cyqLHnk5NtlNjv0K2VUl-245" target="cyqLHnk5NtlNjv0K2VUl-233">
          <mxGeometry width="50" height="50" relative="1" as="geometry">
            <mxPoint x="-530" y="505" as="sourcePoint" />
            <mxPoint x="-590" y="405" as="targetPoint" />
            <Array as="points">
              <mxPoint x="-580" y="528" />
            </Array>
          </mxGeometry>
        </mxCell>
        <mxCell id="cyqLHnk5NtlNjv0K2VUl-247" value="(all) s4city:isKPIOf" style="text;html=1;align=center;verticalAlign=middle;resizable=0;points=[];labelBackgroundColor=#ffffff;" connectable="0" vertex="1" parent="cyqLHnk5NtlNjv0K2VUl-246">
          <mxGeometry x="-0.1269" relative="1" as="geometry">
            <mxPoint y="27" as="offset" />
          </mxGeometry>
        </mxCell>
        <mxCell id="cyqLHnk5NtlNjv0K2VUl-248" value="" style="endArrow=classic;html=1;endSize=8;arcSize=0;rounded=0;edgeStyle=orthogonalEdgeStyle;exitX=0;exitY=0.9;exitDx=0;exitDy=0;" edge="1" parent="1" source="cyqLHnk5NtlNjv0K2VUl-245" target="cyqLHnk5NtlNjv0K2VUl-250">
          <mxGeometry width="50" height="50" relative="1" as="geometry">
            <mxPoint x="-530" y="582.0000000000005" as="sourcePoint" />
            <mxPoint x="-580" y="680.0000000000005" as="targetPoint" />
            <Array as="points">
              <mxPoint x="-530" y="582" />
              <mxPoint x="-580" y="582" />
            </Array>
          </mxGeometry>
        </mxCell>
        <mxCell id="cyqLHnk5NtlNjv0K2VUl-249" value="(all) s4city:hasCalculationPeriod" style="text;html=1;align=center;verticalAlign=middle;resizable=0;points=[];labelBackgroundColor=#ffffff;" connectable="0" vertex="1" parent="cyqLHnk5NtlNjv0K2VUl-248">
          <mxGeometry x="-0.1269" relative="1" as="geometry">
            <mxPoint y="28" as="offset" />
          </mxGeometry>
        </mxCell>
        <mxCell id="cyqLHnk5NtlNjv0K2VUl-250" value="time:TemporalDuration" style="rounded=0;whiteSpace=wrap;html=1;snapToPoint=1;points=[[0.1,0],[0.2,0],[0.3,0],[0.4,0],[0.5,0],[0.6,0],[0.7,0],[0.8,0],[0.9,0],[0,0.1],[0,0.3],[0,0.5],[0,0.7],[0,0.9],[0.1,1],[0.2,1],[0.3,1],[0.4,1],[0.5,1],[0.6,1],[0.7,1],[0.8,1],[0.9,1],[1,0.1],[1,0.3],[1,0.5],[1,0.7],[1,0.9]];" vertex="1" parent="1">
          <mxGeometry x="-650" y="650" width="140" height="30" as="geometry" />
        </mxCell>
        <mxCell id="cyqLHnk5NtlNjv0K2VUl-251" value="" style="endArrow=classic;html=1;endSize=8;dashed=1;arcSize=0;rounded=0;entryX=0;entryY=0.5;entryDx=0;entryDy=0;exitX=0;exitY=0.7;exitDx=0;exitDy=0;edgeStyle=orthogonalEdgeStyle;" edge="1" parent="1" source="cyqLHnk5NtlNjv0K2VUl-233" target="cyqLHnk5NtlNjv0K2VUl-245">
          <mxGeometry width="50" height="50" relative="1" as="geometry">
            <mxPoint x="-770" y="315" as="sourcePoint" />
            <mxPoint x="-620" y="285" as="targetPoint" />
            <Array as="points">
              <mxPoint x="-690" y="341" />
              <mxPoint x="-690" y="540" />
            </Array>
          </mxGeometry>
        </mxCell>
        <mxCell id="cyqLHnk5NtlNjv0K2VUl-252" value="&lt;div&gt;s4city:hasKPI&lt;/div&gt;" style="edgeLabel;html=1;align=center;verticalAlign=middle;resizable=0;points=[];" connectable="0" vertex="1" parent="cyqLHnk5NtlNjv0K2VUl-251">
          <mxGeometry x="-0.1912" y="-1" relative="1" as="geometry">
            <mxPoint x="1" y="78" as="offset" />
          </mxGeometry>
        </mxCell>
        <mxCell id="cyqLHnk5NtlNjv0K2VUl-253" value="" style="endArrow=open;html=1;fontColor=#000099;endFill=0;dashed=1;endSize=8;startArrow=open;startFill=0;startSize=8;arcSize=0;rounded=0;edgeStyle=orthogonalEdgeStyle;" edge="1" parent="1">
          <mxGeometry width="50" height="50" relative="1" as="geometry">
            <mxPoint x="-690" y="400" as="sourcePoint" />
            <mxPoint x="-580" y="470" as="targetPoint" />
            <Array as="points">
              <mxPoint x="-640" y="470" />
            </Array>
          </mxGeometry>
        </mxCell>
        <mxCell id="cyqLHnk5NtlNjv0K2VUl-254" value="&amp;lt;&amp;lt;owl:inverseOf&amp;gt;&amp;gt;" style="text;html=1;align=center;verticalAlign=middle;resizable=0;points=[];fontColor=#000000;labelBackgroundColor=#ffffff;" connectable="0" vertex="1" parent="cyqLHnk5NtlNjv0K2VUl-253">
          <mxGeometry x="-0.3277" relative="1" as="geometry">
            <mxPoint x="5" y="26" as="offset" />
          </mxGeometry>
        </mxCell>
        <mxCell id="cyqLHnk5NtlNjv0K2VUl-255" value="" style="endArrow=classic;html=1;endSize=8;dashed=1;arcSize=0;rounded=0;edgeStyle=orthogonalEdgeStyle;entryX=1;entryY=0.5;entryDx=0;entryDy=0;exitX=0;exitY=0.7;exitDx=0;exitDy=0;" edge="1" parent="1" source="cyqLHnk5NtlNjv0K2VUl-237" target="cyqLHnk5NtlNjv0K2VUl-245">
          <mxGeometry width="50" height="50" relative="1" as="geometry">
            <mxPoint x="-270" y="635" as="sourcePoint" />
            <mxPoint x="-270" y="565" as="targetPoint" />
            <Array as="points">
              <mxPoint x="-270" y="496" />
              <mxPoint x="-270" y="540" />
            </Array>
          </mxGeometry>
        </mxCell>
        <mxCell id="cyqLHnk5NtlNjv0K2VUl-256" value="&lt;div&gt;s4city:quantifiesKPI&lt;/div&gt;" style="edgeLabel;html=1;align=center;verticalAlign=middle;resizable=0;points=[];" connectable="0" vertex="1" parent="cyqLHnk5NtlNjv0K2VUl-255">
          <mxGeometry x="-0.1912" y="-1" relative="1" as="geometry">
            <mxPoint x="1" y="19" as="offset" />
          </mxGeometry>
        </mxCell>
        <mxCell id="cyqLHnk5NtlNjv0K2VUl-257" value="" style="endArrow=classic;html=1;endSize=8;dashed=1;arcSize=0;rounded=0;edgeStyle=orthogonalEdgeStyle;" edge="1" parent="1" source="cyqLHnk5NtlNjv0K2VUl-237" target="cyqLHnk5NtlNjv0K2VUl-232">
          <mxGeometry width="50" height="50" relative="1" as="geometry">
            <mxPoint x="60" y="500" as="sourcePoint" />
            <mxPoint x="350" y="55" as="targetPoint" />
          </mxGeometry>
        </mxCell>
        <mxCell id="cyqLHnk5NtlNjv0K2VUl-258" value="&lt;div&gt;s4city:refersToTime&lt;/div&gt;" style="edgeLabel;html=1;align=center;verticalAlign=middle;resizable=0;points=[];" connectable="0" vertex="1" parent="cyqLHnk5NtlNjv0K2VUl-257">
          <mxGeometry x="-0.1912" y="-1" relative="1" as="geometry">
            <mxPoint x="28" y="2" as="offset" />
          </mxGeometry>
        </mxCell>
        <mxCell id="cyqLHnk5NtlNjv0K2VUl-260" value="skos:Concept" style="rounded=0;whiteSpace=wrap;html=1;snapToPoint=1;points=[[0.1,0],[0.2,0],[0.3,0],[0.4,0],[0.5,0],[0.6,0],[0.7,0],[0.8,0],[0.9,0],[0,0.1],[0,0.3],[0,0.5],[0,0.7],[0,0.9],[0.1,1],[0.2,1],[0.3,1],[0.4,1],[0.5,1],[0.6,1],[0.7,1],[0.8,1],[0.9,1],[1,0.1],[1,0.3],[1,0.5],[1,0.7],[1,0.9]];" vertex="1" parent="1">
          <mxGeometry x="-820" y="560" width="112" height="30" as="geometry" />
        </mxCell>
        <mxCell id="cyqLHnk5NtlNjv0K2VUl-261" value="" style="endArrow=classic;html=1;endSize=8;arcSize=0;rounded=0;" edge="1" parent="1" source="cyqLHnk5NtlNjv0K2VUl-244" target="cyqLHnk5NtlNjv0K2VUl-260">
          <mxGeometry width="50" height="50" relative="1" as="geometry">
            <mxPoint x="-993" y="590" as="sourcePoint" />
            <mxPoint x="-542" y="652" as="targetPoint" />
          </mxGeometry>
        </mxCell>
        <mxCell id="cyqLHnk5NtlNjv0K2VUl-262" value="&lt;div&gt;bigg:has&lt;span style=&quot;background-color: rgb(248, 249, 250);&quot;&gt;KPI&lt;/span&gt;Type&lt;/div&gt;" style="text;html=1;align=center;verticalAlign=middle;resizable=0;points=[];labelBackgroundColor=#ffffff;" vertex="1" connectable="0" parent="cyqLHnk5NtlNjv0K2VUl-261">
          <mxGeometry x="-0.1269" relative="1" as="geometry">
            <mxPoint x="-31" y="2" as="offset" />
          </mxGeometry>
        </mxCell>
        <mxCell id="cyqLHnk5NtlNjv0K2VUl-271" value="bigg:BuildingKeyPerformanceIndicator" style="rounded=0;whiteSpace=wrap;html=1;snapToPoint=1;points=[[0.1,0],[0.2,0],[0.3,0],[0.4,0],[0.5,0],[0.6,0],[0.7,0],[0.8,0],[0.9,0],[0,0.1],[0,0.3],[0,0.5],[0,0.7],[0,0.9],[0.1,1],[0.2,1],[0.3,1],[0.4,1],[0.5,1],[0.6,1],[0.7,1],[0.8,1],[0.9,1],[1,0.1],[1,0.3],[1,0.5],[1,0.7],[1,0.9]];" vertex="1" parent="1">
          <mxGeometry x="-380" y="630" width="227.75" height="30" as="geometry" />
        </mxCell>
        <mxCell id="cyqLHnk5NtlNjv0K2VUl-272" value="bigg:EEMKeyPerformanceIndicator" style="rounded=0;whiteSpace=wrap;html=1;snapToPoint=1;points=[[0.1,0],[0.2,0],[0.3,0],[0.4,0],[0.5,0],[0.6,0],[0.7,0],[0.8,0],[0.9,0],[0,0.1],[0,0.3],[0,0.5],[0,0.7],[0,0.9],[0.1,1],[0.2,1],[0.3,1],[0.4,1],[0.5,1],[0.6,1],[0.7,1],[0.8,1],[0.9,1],[1,0.1],[1,0.3],[1,0.5],[1,0.7],[1,0.9]];" vertex="1" parent="1">
          <mxGeometry x="-380" y="689.5" width="212.15" height="30" as="geometry" />
        </mxCell>
        <mxCell id="cyqLHnk5NtlNjv0K2VUl-273" value="" style="endArrow=block;html=1;fontColor=#000099;endFill=0;endSize=8;arcSize=0;rounded=0;edgeStyle=orthogonalEdgeStyle;" edge="1" parent="1" source="cyqLHnk5NtlNjv0K2VUl-271" target="cyqLHnk5NtlNjv0K2VUl-244">
          <mxGeometry width="50" height="50" relative="1" as="geometry">
            <mxPoint x="-373.6600000000001" y="976.75" as="sourcePoint" />
            <mxPoint x="-306.33199999999965" y="845.7500000000005" as="targetPoint" />
            <Array as="points">
              <mxPoint x="-430" y="645" />
            </Array>
          </mxGeometry>
        </mxCell>
        <mxCell id="cyqLHnk5NtlNjv0K2VUl-274" value="" style="endArrow=block;html=1;fontColor=#000099;endFill=0;endSize=8;arcSize=0;rounded=0;edgeStyle=orthogonalEdgeStyle;" edge="1" parent="1" source="cyqLHnk5NtlNjv0K2VUl-272" target="cyqLHnk5NtlNjv0K2VUl-244">
          <mxGeometry width="50" height="50" relative="1" as="geometry">
            <mxPoint x="-442.73600000000033" y="771.5" as="sourcePoint" />
            <mxPoint x="-317.75000000000045" y="845" as="targetPoint" />
            <Array as="points">
              <mxPoint x="-430" y="704" />
            </Array>
          </mxGeometry>
        </mxCell>
        <mxCell id="cyqLHnk5NtlNjv0K2VUl-304" value="bigg:EnergyEfficiencyMeasure" style="rounded=0;whiteSpace=wrap;html=1;snapToPoint=1;points=[[0.1,0],[0.2,0],[0.3,0],[0.4,0],[0.5,0],[0.6,0],[0.7,0],[0.8,0],[0.9,0],[0,0.1],[0,0.3],[0,0.5],[0,0.7],[0,0.9],[0.1,1],[0.2,1],[0.3,1],[0.4,1],[0.5,1],[0.6,1],[0.7,1],[0.8,1],[0.9,1],[1,0.1],[1,0.3],[1,0.5],[1,0.7],[1,0.9]];" vertex="1" parent="1">
          <mxGeometry x="143.5" y="890" width="189.5" height="30" as="geometry" />
        </mxCell>
        <mxCell id="cyqLHnk5NtlNjv0K2VUl-305" value="" style="endArrow=block;html=1;fontColor=#000099;endFill=0;entryX=0.8;entryY=1;entryDx=0;entryDy=0;endSize=8;arcSize=0;rounded=0;edgeStyle=orthogonalEdgeStyle;" edge="1" parent="1" source="cyqLHnk5NtlNjv0K2VUl-304">
          <mxGeometry width="50" height="50" relative="1" as="geometry">
            <mxPoint x="405.60000000000036" y="730" as="sourcePoint" />
            <mxPoint x="118.19999999999982" y="850" as="targetPoint" />
          </mxGeometry>
        </mxCell>
        <mxCell id="cyqLHnk5NtlNjv0K2VUl-313" value="bigg:AggregationFunction" style="rounded=0;whiteSpace=wrap;html=1;snapToPoint=1;points=[[0.1,0],[0.2,0],[0.3,0],[0.4,0],[0.5,0],[0.6,0],[0.7,0],[0.8,0],[0.9,0],[0,0.1],[0,0.3],[0,0.5],[0,0.7],[0,0.9],[0.1,1],[0.2,1],[0.3,1],[0.4,1],[0.5,1],[0.6,1],[0.7,1],[0.8,1],[0.9,1],[1,0.1],[1,0.3],[1,0.5],[1,0.7],[1,0.9]];" vertex="1" parent="1">
          <mxGeometry x="247" y="560" width="179" height="30" as="geometry" />
        </mxCell>
        <mxCell id="cyqLHnk5NtlNjv0K2VUl-314" value="" style="endArrow=classic;html=1;endSize=8;arcSize=0;rounded=0;edgeStyle=elbowEdgeStyle;exitX=0.7;exitY=0;exitDx=0;exitDy=0;" edge="1" parent="1" source="cyqLHnk5NtlNjv0K2VUl-318" target="cyqLHnk5NtlNjv0K2VUl-313">
          <mxGeometry width="50" height="50" relative="1" as="geometry">
            <mxPoint x="1210" y="457.5" as="sourcePoint" />
            <mxPoint x="979" y="457.5" as="targetPoint" />
            <Array as="points">
              <mxPoint x="100" y="600" />
            </Array>
          </mxGeometry>
        </mxCell>
        <mxCell id="cyqLHnk5NtlNjv0K2VUl-315" value="&lt;div&gt;bigg:hasAggregationFunction&lt;/div&gt;" style="text;html=1;align=center;verticalAlign=middle;resizable=0;points=[];labelBackgroundColor=#ffffff;" connectable="0" vertex="1" parent="cyqLHnk5NtlNjv0K2VUl-314">
          <mxGeometry x="-0.1269" relative="1" as="geometry">
            <mxPoint x="9" y="5" as="offset" />
          </mxGeometry>
        </mxCell>
        <mxCell id="cyqLHnk5NtlNjv0K2VUl-316" value="" style="endArrow=block;html=1;fontColor=#000099;endFill=0;endSize=8;arcSize=0;rounded=0;edgeStyle=orthogonalEdgeStyle;" edge="1" parent="1" source="cyqLHnk5NtlNjv0K2VUl-318" target="cyqLHnk5NtlNjv0K2VUl-236">
          <mxGeometry width="50" height="50" relative="1" as="geometry">
            <mxPoint x="290" y="670" as="sourcePoint" />
            <mxPoint x="383" y="620.5" as="targetPoint" />
            <Array as="points">
              <mxPoint x="-79" y="645" />
            </Array>
          </mxGeometry>
        </mxCell>
        <mxCell id="cyqLHnk5NtlNjv0K2VUl-317" value="" style="endArrow=block;html=1;fontColor=#000099;endFill=0;endSize=8;arcSize=0;rounded=0;edgeStyle=orthogonalEdgeStyle;" edge="1" parent="1" source="cyqLHnk5NtlNjv0K2VUl-319" target="cyqLHnk5NtlNjv0K2VUl-236">
          <mxGeometry width="50" height="50" relative="1" as="geometry">
            <mxPoint x="540" y="670" as="sourcePoint" />
            <mxPoint x="418" y="620.5" as="targetPoint" />
            <Array as="points">
              <mxPoint x="-79" y="985" />
            </Array>
          </mxGeometry>
        </mxCell>
        <mxCell id="cyqLHnk5NtlNjv0K2VUl-318" value="bigg:AggregatedKPIAssessment" style="rounded=0;whiteSpace=wrap;html=1;snapToPoint=1;points=[[0.1,0],[0.2,0],[0.3,0],[0.4,0],[0.5,0],[0.6,0],[0.7,0],[0.8,0],[0.9,0],[0,0.1],[0,0.3],[0,0.5],[0,0.7],[0,0.9],[0.1,1],[0.2,1],[0.3,1],[0.4,1],[0.5,1],[0.6,1],[0.7,1],[0.8,1],[0.9,1],[1,0.1],[1,0.3],[1,0.5],[1,0.7],[1,0.9]];" vertex="1" parent="1">
          <mxGeometry x="-39" y="630" width="179" height="30" as="geometry" />
        </mxCell>
        <mxCell id="cyqLHnk5NtlNjv0K2VUl-319" value="bigg:SingleKPIAssessment" style="rounded=0;whiteSpace=wrap;html=1;snapToPoint=1;points=[[0.1,0],[0.2,0],[0.3,0],[0.4,0],[0.5,0],[0.6,0],[0.7,0],[0.8,0],[0.9,0],[0,0.1],[0,0.3],[0,0.5],[0,0.7],[0,0.9],[0.1,1],[0.2,1],[0.3,1],[0.4,1],[0.5,1],[0.6,1],[0.7,1],[0.8,1],[0.9,1],[1,0.1],[1,0.3],[1,0.5],[1,0.7],[1,0.9]];" vertex="1" parent="1">
          <mxGeometry x="-40" y="970" width="179" height="30" as="geometry" />
        </mxCell>
        <mxCell id="cyqLHnk5NtlNjv0K2VUl-320" value="bigg:AggregatedKPIAssessmentPoint" style="rounded=0;whiteSpace=wrap;html=1;snapToPoint=1;points=[[0.1,0],[0.2,0],[0.3,0],[0.4,0],[0.5,0],[0.6,0],[0.7,0],[0.8,0],[0.9,0],[0,0.1],[0,0.3],[0,0.5],[0,0.7],[0,0.9],[0.1,1],[0.2,1],[0.3,1],[0.4,1],[0.5,1],[0.6,1],[0.7,1],[0.8,1],[0.9,1],[1,0.1],[1,0.3],[1,0.5],[1,0.7],[1,0.9]];" vertex="1" parent="1">
          <mxGeometry x="367" y="630" width="220" height="30" as="geometry" />
        </mxCell>
        <mxCell id="cyqLHnk5NtlNjv0K2VUl-321" value="" style="endArrow=classic;html=1;endSize=8;arcSize=0;rounded=0;exitX=1;exitY=0.5;exitDx=0;exitDy=0;" edge="1" parent="1" target="cyqLHnk5NtlNjv0K2VUl-320" source="cyqLHnk5NtlNjv0K2VUl-318">
          <mxGeometry width="50" height="50" relative="1" as="geometry">
            <mxPoint x="870" y="775.5" as="sourcePoint" />
            <mxPoint x="1470" y="785" as="targetPoint" />
          </mxGeometry>
        </mxCell>
        <mxCell id="cyqLHnk5NtlNjv0K2VUl-322" value="&lt;div&gt;bigg:hasAggregatedKPIPoint&lt;/div&gt;" style="text;html=1;align=center;verticalAlign=middle;resizable=0;points=[];labelBackgroundColor=#ffffff;" vertex="1" connectable="0" parent="cyqLHnk5NtlNjv0K2VUl-321">
          <mxGeometry x="-0.1269" relative="1" as="geometry">
            <mxPoint x="9" y="5" as="offset" />
          </mxGeometry>
        </mxCell>
        <mxCell id="cyqLHnk5NtlNjv0K2VUl-323" value="bigg:TimeSeriesPoint" style="rounded=0;whiteSpace=wrap;html=1;snapToPoint=1;points=[[0.1,0],[0.2,0],[0.3,0],[0.4,0],[0.5,0],[0.6,0],[0.7,0],[0.8,0],[0.9,0],[0,0.1],[0,0.3],[0,0.5],[0,0.7],[0,0.9],[0.1,1],[0.2,1],[0.3,1],[0.4,1],[0.5,1],[0.6,1],[0.7,1],[0.8,1],[0.9,1],[1,0.1],[1,0.3],[1,0.5],[1,0.7],[1,0.9]];" vertex="1" parent="1">
          <mxGeometry x="571" y="565" width="179" height="30" as="geometry" />
        </mxCell>
        <mxCell id="cyqLHnk5NtlNjv0K2VUl-327" value="bigg:SingleKPIAssessmentPoint" style="rounded=0;whiteSpace=wrap;html=1;snapToPoint=1;points=[[0.1,0],[0.2,0],[0.3,0],[0.4,0],[0.5,0],[0.6,0],[0.7,0],[0.8,0],[0.9,0],[0,0.1],[0,0.3],[0,0.5],[0,0.7],[0,0.9],[0.1,1],[0.2,1],[0.3,1],[0.4,1],[0.5,1],[0.6,1],[0.7,1],[0.8,1],[0.9,1],[1,0.1],[1,0.3],[1,0.5],[1,0.7],[1,0.9]];" vertex="1" parent="1">
          <mxGeometry x="366" y="970" width="179" height="30" as="geometry" />
        </mxCell>
        <mxCell id="cyqLHnk5NtlNjv0K2VUl-328" value="" style="endArrow=classic;html=1;endSize=8;arcSize=0;rounded=0;" edge="1" parent="1" target="cyqLHnk5NtlNjv0K2VUl-327" source="cyqLHnk5NtlNjv0K2VUl-319">
          <mxGeometry width="50" height="50" relative="1" as="geometry">
            <mxPoint x="199" y="975.5" as="sourcePoint" />
            <mxPoint x="349" y="895" as="targetPoint" />
          </mxGeometry>
        </mxCell>
        <mxCell id="cyqLHnk5NtlNjv0K2VUl-329" value="&lt;div&gt;bigg:hasSingleKPIPoint&lt;/div&gt;" style="text;html=1;align=center;verticalAlign=middle;resizable=0;points=[];labelBackgroundColor=#ffffff;" vertex="1" connectable="0" parent="cyqLHnk5NtlNjv0K2VUl-328">
          <mxGeometry x="-0.1269" relative="1" as="geometry">
            <mxPoint x="9" y="5" as="offset" />
          </mxGeometry>
        </mxCell>
        <mxCell id="cyqLHnk5NtlNjv0K2VUl-331" value="" style="endArrow=block;html=1;fontColor=#000099;endFill=0;endSize=8;arcSize=0;rounded=0;edgeStyle=orthogonalEdgeStyle;" edge="1" parent="1" source="cyqLHnk5NtlNjv0K2VUl-320" target="cyqLHnk5NtlNjv0K2VUl-323">
          <mxGeometry width="50" height="50" relative="1" as="geometry">
            <mxPoint x="670" y="680" as="sourcePoint" />
            <mxPoint x="1058" y="910" as="targetPoint" />
            <Array as="points">
              <mxPoint x="661" y="645" />
            </Array>
          </mxGeometry>
        </mxCell>
        <mxCell id="cyqLHnk5NtlNjv0K2VUl-332" value="" style="endArrow=block;html=1;fontColor=#000099;endFill=0;endSize=8;arcSize=0;rounded=0;edgeStyle=orthogonalEdgeStyle;" edge="1" parent="1" source="cyqLHnk5NtlNjv0K2VUl-327" target="cyqLHnk5NtlNjv0K2VUl-323">
          <mxGeometry width="50" height="50" relative="1" as="geometry">
            <mxPoint x="597" y="655" as="sourcePoint" />
            <mxPoint x="671" y="606" as="targetPoint" />
          </mxGeometry>
        </mxCell>
        <mxCell id="cyqLHnk5NtlNjv0K2VUl-342" value="bigg:AnalyticalModel" style="rounded=0;whiteSpace=wrap;html=1;snapToPoint=1;points=[[0.1,0],[0.2,0],[0.3,0],[0.4,0],[0.5,0],[0.6,0],[0.7,0],[0.8,0],[0.9,0],[0,0.1],[0,0.3],[0,0.5],[0,0.7],[0,0.9],[0.1,1],[0.2,1],[0.3,1],[0.4,1],[0.5,1],[0.6,1],[0.7,1],[0.8,1],[0.9,1],[1,0.1],[1,0.3],[1,0.5],[1,0.7],[1,0.9]];" vertex="1" parent="1">
          <mxGeometry x="410" y="520" width="179" height="30" as="geometry" />
        </mxCell>
        <mxCell id="cyqLHnk5NtlNjv0K2VUl-343" value="" style="endArrow=classic;html=1;endSize=8;arcSize=0;rounded=0;entryX=0;entryY=0.5;entryDx=0;entryDy=0;exitX=1;exitY=0.3;exitDx=0;exitDy=0;" edge="1" parent="1" target="cyqLHnk5NtlNjv0K2VUl-342" source="cyqLHnk5NtlNjv0K2VUl-236">
          <mxGeometry width="50" height="50" relative="1" as="geometry">
            <mxPoint x="50" y="525.5" as="sourcePoint" />
            <mxPoint x="211" y="427.5" as="targetPoint" />
          </mxGeometry>
        </mxCell>
        <mxCell id="cyqLHnk5NtlNjv0K2VUl-344" value="&lt;div&gt;bigg:isEstimatedByModel&lt;/div&gt;" style="text;html=1;align=center;verticalAlign=middle;resizable=0;points=[];labelBackgroundColor=#ffffff;" vertex="1" connectable="0" parent="cyqLHnk5NtlNjv0K2VUl-343">
          <mxGeometry x="-0.1269" relative="1" as="geometry">
            <mxPoint x="9" y="5" as="offset" />
          </mxGeometry>
        </mxCell>
        <mxCell id="cyqLHnk5NtlNjv0K2VUl-345" value="bigg:ModelStorageInfrastructure" style="rounded=0;whiteSpace=wrap;html=1;snapToPoint=1;points=[[0.1,0],[0.2,0],[0.3,0],[0.4,0],[0.5,0],[0.6,0],[0.7,0],[0.8,0],[0.9,0],[0,0.1],[0,0.3],[0,0.5],[0,0.7],[0,0.9],[0.1,1],[0.2,1],[0.3,1],[0.4,1],[0.5,1],[0.6,1],[0.7,1],[0.8,1],[0.9,1],[1,0.1],[1,0.3],[1,0.5],[1,0.7],[1,0.9]];" vertex="1" parent="1">
          <mxGeometry x="589" y="450" width="179" height="30" as="geometry" />
        </mxCell>
        <mxCell id="cyqLHnk5NtlNjv0K2VUl-346" value="" style="endArrow=classic;html=1;endSize=8;arcSize=0;rounded=0;exitX=1;exitY=0.5;exitDx=0;exitDy=0;edgeStyle=orthogonalEdgeStyle;" edge="1" parent="1" source="cyqLHnk5NtlNjv0K2VUl-342" target="cyqLHnk5NtlNjv0K2VUl-345">
          <mxGeometry width="50" height="50" relative="1" as="geometry">
            <mxPoint x="-70" y="437.5" as="sourcePoint" />
            <mxPoint x="81" y="437.5" as="targetPoint" />
          </mxGeometry>
        </mxCell>
        <mxCell id="cyqLHnk5NtlNjv0K2VUl-347" value="&lt;div&gt;bigg:has&lt;span style=&quot;background-color: rgb(248, 249, 250);&quot;&gt;ModelStorageInfrastructure&lt;/span&gt;&lt;/div&gt;" style="text;html=1;align=center;verticalAlign=middle;resizable=0;points=[];labelBackgroundColor=#ffffff;" vertex="1" connectable="0" parent="cyqLHnk5NtlNjv0K2VUl-346">
          <mxGeometry x="-0.1269" relative="1" as="geometry">
            <mxPoint x="27" y="-30" as="offset" />
          </mxGeometry>
        </mxCell>
        <mxCell id="cyqLHnk5NtlNjv0K2VUl-348" value="skos:Concept" style="rounded=0;whiteSpace=wrap;html=1;snapToPoint=1;points=[[0.1,0],[0.2,0],[0.3,0],[0.4,0],[0.5,0],[0.6,0],[0.7,0],[0.8,0],[0.9,0],[0,0.1],[0,0.3],[0,0.5],[0,0.7],[0,0.9],[0.1,1],[0.2,1],[0.3,1],[0.4,1],[0.5,1],[0.6,1],[0.7,1],[0.8,1],[0.9,1],[1,0.1],[1,0.3],[1,0.5],[1,0.7],[1,0.9]];" vertex="1" parent="1">
          <mxGeometry x="444.5" y="430" width="110" height="30" as="geometry" />
        </mxCell>
        <mxCell id="cyqLHnk5NtlNjv0K2VUl-349" value="" style="endArrow=classic;html=1;endSize=8;arcSize=0;rounded=0;entryX=0.5;entryY=1;entryDx=0;entryDy=0;exitX=0.5;exitY=0;exitDx=0;exitDy=0;" edge="1" parent="1" source="cyqLHnk5NtlNjv0K2VUl-342" target="cyqLHnk5NtlNjv0K2VUl-348">
          <mxGeometry width="50" height="50" relative="1" as="geometry">
            <mxPoint x="599" y="545" as="sourcePoint" />
            <mxPoint x="850" y="545" as="targetPoint" />
          </mxGeometry>
        </mxCell>
        <mxCell id="cyqLHnk5NtlNjv0K2VUl-350" value="&lt;div&gt;bigg:has&lt;span style=&quot;background-color: rgb(248, 249, 250);&quot;&gt;ModelType&lt;/span&gt;&lt;/div&gt;" style="text;html=1;align=center;verticalAlign=middle;resizable=0;points=[];labelBackgroundColor=#ffffff;" vertex="1" connectable="0" parent="cyqLHnk5NtlNjv0K2VUl-349">
          <mxGeometry x="-0.1269" relative="1" as="geometry">
            <mxPoint x="9" y="5" as="offset" />
          </mxGeometry>
        </mxCell>
        <mxCell id="cyqLHnk5NtlNjv0K2VUl-353" value="bigg:AnalyticalGroup" style="rounded=0;whiteSpace=wrap;html=1;snapToPoint=1;points=[[0.1,0],[0.2,0],[0.3,0],[0.4,0],[0.5,0],[0.6,0],[0.7,0],[0.8,0],[0.9,0],[0,0.1],[0,0.3],[0,0.5],[0,0.7],[0,0.9],[0.1,1],[0.2,1],[0.3,1],[0.4,1],[0.5,1],[0.6,1],[0.7,1],[0.8,1],[0.9,1],[1,0.1],[1,0.3],[1,0.5],[1,0.7],[1,0.9]];" vertex="1" parent="1">
          <mxGeometry x="-39" y="719.5" width="179" height="30" as="geometry" />
        </mxCell>
        <mxCell id="cyqLHnk5NtlNjv0K2VUl-354" value="" style="endArrow=classic;html=1;endSize=8;arcSize=0;rounded=0;exitX=0.5;exitY=0;exitDx=0;exitDy=0;" edge="1" parent="1" source="cyqLHnk5NtlNjv0K2VUl-353" target="cyqLHnk5NtlNjv0K2VUl-318">
          <mxGeometry width="50" height="50" relative="1" as="geometry">
            <mxPoint x="47.17000000000007" y="780" as="sourcePoint" />
            <mxPoint x="80" y="700" as="targetPoint" />
          </mxGeometry>
        </mxCell>
        <mxCell id="cyqLHnk5NtlNjv0K2VUl-355" value="&lt;div&gt;bigg:assessesAggregatedKPI&lt;/div&gt;" style="text;html=1;align=center;verticalAlign=middle;resizable=0;points=[];labelBackgroundColor=#ffffff;" vertex="1" connectable="0" parent="cyqLHnk5NtlNjv0K2VUl-354">
          <mxGeometry x="-0.1269" relative="1" as="geometry">
            <mxPoint x="9" y="5" as="offset" />
          </mxGeometry>
        </mxCell>
        <mxCell id="cyqLHnk5NtlNjv0K2VUl-356" value="bigg:KPICalculationItem" style="rounded=0;whiteSpace=wrap;html=1;snapToPoint=1;points=[[0.1,0],[0.2,0],[0.3,0],[0.4,0],[0.5,0],[0.6,0],[0.7,0],[0.8,0],[0.9,0],[0,0.1],[0,0.3],[0,0.5],[0,0.7],[0,0.9],[0.1,1],[0.2,1],[0.3,1],[0.4,1],[0.5,1],[0.6,1],[0.7,1],[0.8,1],[0.9,1],[1,0.1],[1,0.3],[1,0.5],[1,0.7],[1,0.9]];" vertex="1" parent="1">
          <mxGeometry x="-40" y="820" width="180" height="30" as="geometry" />
        </mxCell>
        <mxCell id="cyqLHnk5NtlNjv0K2VUl-357" value="" style="endArrow=classic;html=1;endSize=8;arcSize=0;rounded=0;" edge="1" parent="1" source="cyqLHnk5NtlNjv0K2VUl-356" target="cyqLHnk5NtlNjv0K2VUl-319">
          <mxGeometry width="50" height="50" relative="1" as="geometry">
            <mxPoint x="449" y="594.5" as="sourcePoint" />
            <mxPoint x="469" y="689.5" as="targetPoint" />
          </mxGeometry>
        </mxCell>
        <mxCell id="cyqLHnk5NtlNjv0K2VUl-358" value="&lt;div&gt;bigg:assessesSingleKPI&lt;/div&gt;" style="text;html=1;align=center;verticalAlign=middle;resizable=0;points=[];labelBackgroundColor=#ffffff;" vertex="1" connectable="0" parent="cyqLHnk5NtlNjv0K2VUl-357">
          <mxGeometry x="-0.1269" relative="1" as="geometry">
            <mxPoint x="9" y="36" as="offset" />
          </mxGeometry>
        </mxCell>
        <mxCell id="cyqLHnk5NtlNjv0K2VUl-359" value="" style="endArrow=classic;html=1;endSize=8;arcSize=0;rounded=0;entryX=0.5;entryY=1;entryDx=0;entryDy=0;exitX=0.5;exitY=0;exitDx=0;exitDy=0;" edge="1" parent="1" source="cyqLHnk5NtlNjv0K2VUl-356" target="cyqLHnk5NtlNjv0K2VUl-353">
          <mxGeometry width="50" height="50" relative="1" as="geometry">
            <mxPoint x="270" y="790" as="sourcePoint" />
            <mxPoint x="208" y="790" as="targetPoint" />
          </mxGeometry>
        </mxCell>
        <mxCell id="cyqLHnk5NtlNjv0K2VUl-360" value="&lt;div&gt;bigg:groupsForAnalytics&lt;/div&gt;" style="text;html=1;align=center;verticalAlign=middle;resizable=0;points=[];labelBackgroundColor=#ffffff;" vertex="1" connectable="0" parent="cyqLHnk5NtlNjv0K2VUl-359">
          <mxGeometry x="-0.1269" relative="1" as="geometry">
            <mxPoint x="1" y="1" as="offset" />
          </mxGeometry>
        </mxCell>
        <mxCell id="cyqLHnk5NtlNjv0K2VUl-361" value="bigg:AnalyticalModel" style="rounded=0;whiteSpace=wrap;html=1;snapToPoint=1;points=[[0.1,0],[0.2,0],[0.3,0],[0.4,0],[0.5,0],[0.6,0],[0.7,0],[0.8,0],[0.9,0],[0,0.1],[0,0.3],[0,0.5],[0,0.7],[0,0.9],[0.1,1],[0.2,1],[0.3,1],[0.4,1],[0.5,1],[0.6,1],[0.7,1],[0.8,1],[0.9,1],[1,0.1],[1,0.3],[1,0.5],[1,0.7],[1,0.9]];" vertex="1" parent="1">
          <mxGeometry x="367" y="820" width="179" height="30" as="geometry" />
        </mxCell>
        <mxCell id="cyqLHnk5NtlNjv0K2VUl-362" value="" style="endArrow=classic;html=1;endSize=8;arcSize=0;rounded=0;" edge="1" parent="1" target="cyqLHnk5NtlNjv0K2VUl-361" source="cyqLHnk5NtlNjv0K2VUl-356">
          <mxGeometry width="50" height="50" relative="1" as="geometry">
            <mxPoint x="-140" y="1035" as="sourcePoint" />
            <mxPoint x="290" y="1030" as="targetPoint" />
          </mxGeometry>
        </mxCell>
        <mxCell id="cyqLHnk5NtlNjv0K2VUl-363" value="&lt;div&gt;bigg:hasAnalyticalModel&lt;/div&gt;" style="text;html=1;align=center;verticalAlign=middle;resizable=0;points=[];labelBackgroundColor=#ffffff;" vertex="1" connectable="0" parent="cyqLHnk5NtlNjv0K2VUl-362">
          <mxGeometry x="-0.1269" relative="1" as="geometry">
            <mxPoint x="9" y="5" as="offset" />
          </mxGeometry>
        </mxCell>
        <mxCell id="cyqLHnk5NtlNjv0K2VUl-364" value="" style="endArrow=classic;html=1;endSize=8;arcSize=0;rounded=0;edgeStyle=orthogonalEdgeStyle;" edge="1" parent="1" source="cyqLHnk5NtlNjv0K2VUl-356" target="cyqLHnk5NtlNjv0K2VUl-244">
          <mxGeometry width="50" height="50" relative="1" as="geometry">
            <mxPoint x="-310" y="870" as="sourcePoint" />
            <mxPoint x="-450" y="960" as="targetPoint" />
            <Array as="points">
              <mxPoint x="-470" y="835" />
            </Array>
          </mxGeometry>
        </mxCell>
        <mxCell id="cyqLHnk5NtlNjv0K2VUl-365" value="&lt;div&gt;bigg:hasKPI&lt;/div&gt;" style="text;html=1;align=center;verticalAlign=middle;resizable=0;points=[];labelBackgroundColor=#ffffff;" vertex="1" connectable="0" parent="cyqLHnk5NtlNjv0K2VUl-364">
          <mxGeometry x="-0.1269" relative="1" as="geometry">
            <mxPoint x="9" y="5" as="offset" />
          </mxGeometry>
        </mxCell>
        <mxCell id="cyqLHnk5NtlNjv0K2VUl-366" value="bigg:TimeSeriesList" style="rounded=0;whiteSpace=wrap;html=1;snapToPoint=1;points=[[0.1,0],[0.2,0],[0.3,0],[0.4,0],[0.5,0],[0.6,0],[0.7,0],[0.8,0],[0.9,0],[0,0.1],[0,0.3],[0,0.5],[0,0.7],[0,0.9],[0.1,1],[0.2,1],[0.3,1],[0.4,1],[0.5,1],[0.6,1],[0.7,1],[0.8,1],[0.9,1],[1,0.1],[1,0.3],[1,0.5],[1,0.7],[1,0.9]];" vertex="1" parent="1">
          <mxGeometry x="-139.12" y="350" width="120.75" height="30" as="geometry" />
        </mxCell>
        <mxCell id="cyqLHnk5NtlNjv0K2VUl-367" value="" style="endArrow=block;html=1;fontColor=#000099;endFill=0;endSize=8;arcSize=0;rounded=0;" edge="1" parent="1" target="cyqLHnk5NtlNjv0K2VUl-366" source="cyqLHnk5NtlNjv0K2VUl-237">
          <mxGeometry width="50" height="50" relative="1" as="geometry">
            <mxPoint x="621" y="355" as="sourcePoint" />
            <mxPoint x="881.5" y="260" as="targetPoint" />
          </mxGeometry>
        </mxCell>
        <mxCell id="cyqLHnk5NtlNjv0K2VUl-370" value="&lt;div&gt;&lt;b&gt;bigg&lt;/b&gt;: http://bigg-project.eu/ld/ontology#&lt;/div&gt;&lt;div&gt;&lt;/div&gt;&lt;b&gt;saref:&lt;/b&gt;&amp;nbsp;https://saref.etsi.org/core/&lt;br&gt;&lt;b&gt;s4city: &lt;/b&gt;https://saref.etsi.org/saref4city/&lt;br&gt;&lt;b&gt;skos:&amp;nbsp;&lt;/b&gt;http://www.w3.org/2004/02/skos/core#&lt;br&gt;&lt;span style=&quot;border-color: var(--border-color);&quot;&gt;&lt;b style=&quot;border-color: var(--border-color);&quot;&gt;time:&amp;nbsp;&lt;/b&gt;http://www.w3.org/2006/time#&lt;br style=&quot;border-color: var(--border-color);&quot;&gt;&lt;/span&gt;" style="shape=note;whiteSpace=wrap;html=1;backgroundOutline=1;darkOpacity=0.05;fillColor=#FFFFFF;" vertex="1" parent="1">
          <mxGeometry x="-660" y="160" width="338" height="90" as="geometry" />
        </mxCell>
        <mxCell id="cyqLHnk5NtlNjv0K2VUl-371" value="&lt;div&gt;&lt;b&gt;dc:creator:&lt;/b&gt;&amp;nbsp;Edgar Martínez-Sarmiento&lt;/div&gt;&lt;div&gt;&lt;div style=&quot;text-align: left;&quot;&gt;&lt;b&gt;dc:contributor&lt;/b&gt;:&amp;nbsp;Eloi Gabaldon&lt;/div&gt;&lt;div style=&quot;text-align: left;&quot;&gt;&lt;b&gt;dc:contributor&lt;/b&gt;:&amp;nbsp;Guillaume Picinbono&lt;br&gt;&lt;/div&gt;&lt;div style=&quot;text-align: left;&quot;&gt;&lt;b&gt;dc:contributor&lt;/b&gt;:&amp;nbsp;Nicolas Bus&lt;br&gt;&lt;/div&gt;&lt;div style=&quot;text-align: left;&quot;&gt;&lt;b&gt;dc:contributor&lt;/b&gt;:&amp;nbsp;Stoyan Danov&lt;br&gt;&lt;/div&gt;&lt;div style=&quot;text-align: left;&quot;&gt;&lt;b&gt;dc:contributor&lt;/b&gt;:&amp;nbsp;Timson Yeung&lt;/div&gt;&lt;/div&gt;&lt;div&gt;&lt;b&gt;owl:versionInfo:&lt;/b&gt; 2.1&lt;br&gt;&lt;/div&gt;&lt;div&gt;&lt;b&gt;dc:title:&lt;/b&gt;&amp;nbsp;KPI BIGG ontology extension&lt;/div&gt;" style="shape=document;whiteSpace=wrap;html=1;boundedLbl=1;labelBackgroundColor=#ffffff;strokeColor=#000000;fontSize=12;fontColor=#000000;size=0.23333333333333334;fillColor=#FFFFFF;" vertex="1" parent="1">
          <mxGeometry x="309.98" y="160" width="310" height="190" as="geometry" />
        </mxCell>
      </root>
    </mxGraphModel>
  </diagram>
</mxfile>
